<?xml version="1.0" encoding="UTF-8"?>
<svg version="1.1" xmlns="http://www.w3.org/2000/svg" width="512" height="512">
<path d="M0 0 C0.85128479 -0.00570007 1.70256958 -0.01140015 2.57965088 -0.01727295 C4.37812073 -0.02667269 6.17660741 -0.0332368 7.97509766 -0.03710938 C10.65430146 -0.04670022 13.33269813 -0.07772329 16.01171875 -0.109375 C31.51688228 -0.20463399 46.79457639 1.47033145 61.828125 5.390625 C63.03964233 5.70362549 63.03964233 5.70362549 64.27563477 6.02294922 C108.90509832 18.00223429 147.6118469 44.35176791 171.46875 84.3359375 C188.84978898 114.80076462 193.32964298 151.10484304 184.328125 184.890625 C183.56001603 187.66930892 182.76477816 190.43668885 181.953125 193.203125 C183.0369043 193.33775146 183.0369043 193.33775146 184.14257812 193.47509766 C208.48392256 196.56197377 231.47625014 201.08901804 253.953125 211.203125 C254.6534082 211.51475586 255.35369141 211.82638672 256.07519531 212.14746094 C272.5916087 219.61183715 287.65371844 229.919532 300.953125 242.203125 C301.79520508 242.97148682 301.79520508 242.97148682 302.65429688 243.75537109 C327.06706038 266.2698177 345.1890645 298.08928097 347.16015625 331.73730469 C348.5676275 370.87505875 337.9679385 408.00406583 311.07421875 437.24609375 C303.32496706 445.45029173 295.47548188 453.07008158 285.953125 459.203125 C290.54414525 472.14361732 301.96605511 484.49394548 311.765625 493.921875 C312.40862549 494.54263916 313.05162598 495.16340332 313.71411133 495.80297852 C314.9729167 497.00371708 316.24579359 498.18991986 317.53393555 499.35913086 C320.44633531 502.1198134 321.8176786 503.43862554 322.53515625 507.48828125 C321.953125 510.203125 321.953125 510.203125 318.953125 512.203125 C316.28752419 512.29348435 313.79146271 512.25302151 311.140625 512.078125 C310.35018799 512.02809326 309.55975098 511.97806152 308.74536133 511.92651367 C284.63120566 510.11883122 255.56749078 504.22696607 234.53613281 491.77172852 C228.56973002 488.2620449 224.93609767 487.86851288 218.20263672 489.44067383 C217.17154785 489.71290771 216.14045898 489.9851416 215.078125 490.265625 C212.85579074 490.77793015 210.63179304 491.28306901 208.40625 491.78125 C207.31248047 492.03068359 206.21871094 492.28011719 205.09179688 492.53710938 C163.14954899 501.43711344 115.19254529 493.28047083 77.66064453 473.11572266 C76.12245829 472.29362655 74.56794477 471.50225692 73.01171875 470.71484375 C38.56601309 452.91538886 10.87968488 420.84578784 -1.0480957 384.00805664 C-8.84216729 358.74865188 -11.30199828 324.71337155 0.953125 300.203125 C0.30480713 300.22487793 -0.34351074 300.24663086 -1.01147461 300.26904297 C-8.39607051 300.40670521 -15.34230709 299.5799962 -22.609375 298.328125 C-24.19782227 298.06708984 -24.19782227 298.06708984 -25.81835938 297.80078125 C-27.3874707 297.53974609 -27.3874707 297.53974609 -28.98828125 297.2734375 C-30.01236084 297.10352295 -31.03644043 296.9336084 -32.09155273 296.75854492 C-35.046875 296.203125 -35.046875 296.203125 -37.72290039 295.4855957 C-44.52482794 293.69991669 -48.24064933 294.89446423 -54.359375 298.140625 C-56.11461496 298.99627558 -57.8738765 299.84371731 -59.63671875 300.68359375 C-60.53116699 301.11075684 -61.42561523 301.53791992 -62.34716797 301.97802734 C-84.002659 311.80505339 -113.14424439 319.64487097 -137.046875 318.203125 C-138.921875 317.015625 -138.921875 317.015625 -140.046875 315.203125 C-140.39513086 312.22631571 -140.44901936 310.75615319 -138.66088867 308.29711914 C-137.69759644 307.40174438 -137.69759644 307.40174438 -136.71484375 306.48828125 C-135.6484668 305.46976074 -135.6484668 305.46976074 -134.56054688 304.43066406 C-133.4090918 303.35896973 -133.4090918 303.35896973 -132.234375 302.265625 C-120.86181919 291.29417593 -111.84591554 279.28219267 -103.046875 266.203125 C-104.05105469 265.41550781 -105.05523437 264.62789063 -106.08984375 263.81640625 C-132.73632724 242.69711047 -150.82911922 218.33619908 -160.796875 185.578125 C-160.99571289 184.93431885 -161.19455078 184.2905127 -161.39941406 183.62719727 C-170.83481658 151.09286122 -165.31189381 114.99890913 -149.23706055 85.56445312 C-141.90874802 72.71767542 -132.62243041 61.51429153 -122.046875 51.203125 C-121.46164063 50.57277344 -120.87640625 49.94242188 -120.2734375 49.29296875 C-90.89916113 18.3353206 -42.15522387 0.22597882 0 0 Z " fill="#3B97D2" transform="translate(165.046875,-0.203125)"/>
<path d="M0 0 C0.85128479 -0.00570007 1.70256958 -0.01140015 2.57965088 -0.01727295 C4.37812073 -0.02667269 6.17660741 -0.0332368 7.97509766 -0.03710938 C10.65430146 -0.04670022 13.33269813 -0.07772329 16.01171875 -0.109375 C31.51688228 -0.20463399 46.79457639 1.47033145 61.828125 5.390625 C63.03964233 5.70362549 63.03964233 5.70362549 64.27563477 6.02294922 C108.90509832 18.00223429 147.6118469 44.35176791 171.46875 84.3359375 C189.45684353 115.86478686 193.0743187 152.55593728 183.71826172 187.3269043 C182.10992128 193.04632872 182.10992128 193.04632872 180.953125 194.203125 C179.35559001 194.31334562 177.75355415 194.35911009 176.15234375 194.37890625 C124.88619296 195.41792172 75.30557616 209.69599099 37.953125 246.203125 C37.03144531 247.06292969 36.10976562 247.92273438 35.16015625 248.80859375 C20.16193876 263.12988182 9.36876024 280.92165192 1.953125 300.203125 C-6.47205696 300.45774769 -14.37619836 299.76863043 -22.671875 298.328125 C-24.25355469 298.06708984 -24.25355469 298.06708984 -25.8671875 297.80078125 C-27.42953125 297.53974609 -27.42953125 297.53974609 -29.0234375 297.2734375 C-30.04123291 297.10352295 -31.05902832 296.9336084 -32.10766602 296.75854492 C-35.046875 296.203125 -35.046875 296.203125 -37.71850586 295.4855957 C-44.52215528 293.69981077 -48.23934149 294.89377038 -54.359375 298.140625 C-56.11461496 298.99627558 -57.8738765 299.84371731 -59.63671875 300.68359375 C-60.53116699 301.11075684 -61.42561523 301.53791992 -62.34716797 301.97802734 C-84.002659 311.80505339 -113.14424439 319.64487097 -137.046875 318.203125 C-138.921875 317.015625 -138.921875 317.015625 -140.046875 315.203125 C-140.39513086 312.22631571 -140.44901936 310.75615319 -138.66088867 308.29711914 C-137.69759644 307.40174438 -137.69759644 307.40174438 -136.71484375 306.48828125 C-135.6484668 305.46976074 -135.6484668 305.46976074 -134.56054688 304.43066406 C-133.4090918 303.35896973 -133.4090918 303.35896973 -132.234375 302.265625 C-120.86181919 291.29417593 -111.84591554 279.28219267 -103.046875 266.203125 C-104.05105469 265.41550781 -105.05523437 264.62789063 -106.08984375 263.81640625 C-132.73632724 242.69711047 -150.82911922 218.33619908 -160.796875 185.578125 C-160.99571289 184.93431885 -161.19455078 184.2905127 -161.39941406 183.62719727 C-170.83481658 151.09286122 -165.31189381 114.99890913 -149.23706055 85.56445312 C-141.90874802 72.71767542 -132.62243041 61.51429153 -122.046875 51.203125 C-121.46164063 50.57277344 -120.87640625 49.94242188 -120.2734375 49.29296875 C-90.89916113 18.3353206 -42.15522387 0.22597882 0 0 Z " fill="#EFC419" transform="translate(165.046875,-0.203125)"/>
<path d="M0 0 C4.36775158 3.14884416 7.96773395 6.77820184 9.6875 11.9375 C10.50597575 17.86560291 9.79439889 22.23666122 6.29296875 27.140625 C2.16706851 31.75842089 -2.07620391 34.19847657 -8.3125 34.5625 C-13.64022926 34.25922926 -17.37115973 32.49742025 -21.3125 28.9375 C-25.52852018 23.77287528 -25.9467022 19.34694088 -25.69140625 12.7421875 C-24.97184426 7.41594513 -22.15641989 4.45244611 -18.25 1.0625 C-12.70328122 -2.64328195 -6.10743217 -1.95898768 0 0 Z " fill="#FBFDFE" transform="translate(255.3125,328.0625)"/>
<path d="M0 0 C5.03359633 2.3843351 8.49996787 5.99993573 11 11 C11.52779267 17.2117137 11.74403643 22.758349 8 28 C3.80147951 32.21028105 0.18964042 34.78103596 -5.75 35.375 C-11.52484069 35.17105581 -15.86668374 33.26948538 -19.8359375 29.046875 C-23.15913468 24.5847417 -24.88977169 20.80892621 -24.44921875 15.19921875 C-23.36485722 9.89056184 -21.14387106 5.6143485 -17.0625 2 C-11.92463969 -1.28066838 -5.83228932 -0.81171037 0 0 Z " fill="#FEFDFA" transform="translate(271,133)"/>
<path d="M0 0 C4.49366208 2.32122942 7.96628645 5.68949507 9.89453125 10.3515625 C10.83438566 16.50984665 10.62172887 22.1815787 6.89453125 27.3515625 C2.54614443 31.7102292 -0.96332202 34.43528672 -7.29296875 34.7265625 C-12.64050428 34.6396107 -16.14728818 32.88811079 -20.10546875 29.3515625 C-23.75789726 25.3533944 -25.41501042 21.65292669 -25.66796875 16.2265625 C-25.36261946 10.83756014 -23.52437623 7.6223736 -19.57421875 3.9140625 C-13.72150687 -1.13533598 -7.55073575 -2.32545851 0 0 Z " fill="#FCFDFE" transform="translate(431.10546875,327.6484375)"/>
<path d="M0 0 C4.01684726 2.93915653 6.95784056 6.06102168 8.5625 10.875 C9.34646339 17.39089241 8.34923329 22.47063308 4.5625 27.875 C-0.25201272 32.44878709 -4.46357053 34.41688046 -11.05859375 34.25390625 C-16.70884485 33.35394836 -20.44306922 30.14991126 -23.875 25.75 C-26.58006601 20.77267854 -27.23121034 16.44901123 -26.4375 10.875 C-21.69246727 -0.78305455 -11.58925768 -3.79284797 0 0 Z " fill="#FEFEFB" transform="translate(185.4375,134.125)"/>
<path d="M0 0 C4.8715825 2.44656909 7.87870637 6.41912127 9.828125 11.38671875 C11.01993592 16.99364741 10.29270676 21.3249372 7.390625 26.26171875 C3.14375911 31.92086787 -1.90184041 33.8703975 -8.734375 34.94921875 C-14.58700425 33.99151578 -18.61924932 31.05877717 -22.609375 26.76171875 C-25.94355598 21.69376366 -25.777857 16.26137763 -25.171875 10.38671875 C-20.12990029 0.11602953 -10.79486018 -3.04818894 0 0 Z " fill="#FEFEFB" transform="translate(96.171875,133.61328125)"/>
<path d="M0 0 C4.63469026 1.96623223 7.43044792 4.7657167 9.83984375 9.16796875 C11.61097261 13.77943329 11.50463705 17.91924238 9.953125 22.58203125 C7.55446924 27.88070115 4.51172583 30.84839144 -0.625 33.625 C-5.78374482 35.06464972 -10.24110276 35.23831228 -15 32.75 C-19.05109786 30.15433089 -22.15136119 26.69727761 -24.3125 22.375 C-25.09440581 15.73997071 -24.82241427 10.50195347 -20.78125 5.03515625 C-15.01212676 -1.48579423 -8.17757598 -2.21015567 0 0 Z " fill="#FCFDFE" transform="translate(342.3125,327.625)"/>
</svg>
